<svg xmlns="http://www.w3.org/2000/svg" viewBox="0 0 900 340" width="900" height="340"><defs>
    <linearGradient id="sky" x1="0" y1="0" x2="0" y2="1">
      <stop offset="0%" stop-color="#0d1117"/>
      <stop offset="100%" stop-color="#161b22"/>
    </linearGradient>
    <pattern id="stars" x="0" y="0" width="120" height="120" patternUnits="userSpaceOnUse">
      <circle cx="12" cy="18" r="0.8" fill="#fff" opacity="0.5"/>
      <circle cx="40" cy="9"  r="0.6" fill="#fff" opacity="0.4"/>
      <circle cx="65" cy="28" r="0.7" fill="#58a6ff" opacity="0.5"/>
      <circle cx="85" cy="6"  r="0.5" fill="#fff" opacity="0.3"/>
      <circle cx="95" cy="45" r="0.8" fill="#fff" opacity="0.6"/>
      <circle cx="22" cy="60" r="0.5" fill="#fff" opacity="0.4"/>
      <circle cx="55" cy="75" r="0.6" fill="#58a6ff" opacity="0.4"/>
      <circle cx="78" cy="90" r="0.4" fill="#fff" opacity="0.3"/>
      <circle cx="8"  cy="95" r="0.7" fill="#fff" opacity="0.5"/>
      <circle cx="48" cy="50" r="0.5" fill="#fff" opacity="0.35"/>
      <circle cx="110" cy="30" r="0.6" fill="#58a6ff" opacity="0.45"/>
    </pattern>
    <filter id="glow-orange" x="-60%" y="-60%" width="220%" height="220%">
      <feGaussianBlur stdDeviation="2.5" result="b"/>
      <feMerge><feMergeNode in="b"/><feMergeNode in="SourceGraphic"/></feMerge>
    </filter>
    <filter id="glow-soft" x="-40%" y="-40%" width="180%" height="180%">
      <feGaussianBlur stdDeviation="1.5" result="b"/>
      <feMerge><feMergeNode in="b"/><feMergeNode in="SourceGraphic"/></feMerge>
    </filter>
    <style>
    .tower-top { animation: towerGlow 3s ease-in-out infinite; }
    @keyframes towerGlow {
      0%,100%{fill:#f97316;filter:drop-shadow(0 0 6px #f97316)}
      50%{fill:#fbbf24;filter:drop-shadow(0 0 14px #fbbf24)}
    }
    .sign-0 { animation: signB 1.5s ease-in-out infinite; }
    .sign-1 { animation: signB 1.5s ease-in-out infinite 0.75s; }
    @keyframes signB { 0%,100%{opacity:1} 50%{opacity:0.25} }
    .moon { animation: moonP 6s ease-in-out infinite; }
    @keyframes moonP {
      0%,100%{filter:drop-shadow(0 0 8px #e2c97e)}
      50%{filter:drop-shadow(0 0 18px #f0d98a)}
    }
    .car1 { animation: carR 13s linear infinite; }
    .car2 { animation: carL 19s linear infinite 5s; }
    @keyframes carR {
      0%{transform:translateX(-60px);opacity:0} 4%{opacity:1}
      96%{opacity:1} 100%{transform:translateX(960px);opacity:0}
    }
    @keyframes carL {
      0%{transform:translateX(960px) scaleX(-1);opacity:0} 4%{opacity:1}
      96%{opacity:1} 100%{transform:translateX(-60px) scaleX(-1);opacity:0}
    }
    .lamp { animation: lampG 4s ease-in-out infinite; }
    @keyframes lampG { 0%,100%{opacity:0.9} 50%{opacity:1} }
    
.win-0-0 { animation: blink0a 2.2s ease-in-out 0s infinite; }
.win-0-1 { animation: blink0a 2.2s ease-in-out 0.4s infinite; }
.win-0-2 { animation: blink0a 2.2s ease-in-out 0.8s infinite; }
@keyframes blink0a {
  0%,100%{opacity:var(--op,0.8)} 30%{opacity:0.12} 42%{opacity:0.12}
}
.win-1-0 { animation: blink1a 2.6s ease-in-out 0s infinite; }
.win-1-1 { animation: blink1a 2.6s ease-in-out 0.6s infinite; }
.win-1-2 { animation: blink1a 2.6s ease-in-out 1.0s infinite; }
@keyframes blink1a {
  0%,100%{opacity:var(--op,0.8)} 37%{opacity:0.12} 49%{opacity:0.12}
}
.win-2-0 { animation: blink2a 2.9s ease-in-out 0s infinite; }
.win-2-1 { animation: blink2a 2.9s ease-in-out 0.8s infinite; }
.win-2-2 { animation: blink2a 2.9s ease-in-out 1.3s infinite; }
@keyframes blink2a {
  0%,100%{opacity:var(--op,0.8)} 44%{opacity:0.12} 56%{opacity:0.12}
}
.win-3-0 { animation: blink3a 3.3s ease-in-out 0s infinite; }
.win-3-1 { animation: blink3a 3.3s ease-in-out 1.0s infinite; }
.win-3-2 { animation: blink3a 3.3s ease-in-out 1.5s infinite; }
@keyframes blink3a {
  0%,100%{opacity:var(--op,0.8)} 51%{opacity:0.12} 63%{opacity:0.12}
}
  </style>
  </defs><rect width="900" height="340" fill="url(#sky)"/>
<rect width="900" height="220" fill="url(#stars)" opacity="0.85"/>
<circle cx="830" cy="42" r="22" fill="#f0d98a" class="moon"/>
<circle cx="841" cy="35" r="16" fill="#161b22"/><rect x="0" y="278" width="900" height="62" fill="#161b22"/>
<rect x="0" y="278" width="900" height="16" fill="#1c2128"/><rect x="0" y="284" width="50" height="3" fill="#30363d" rx="1"/><rect x="80" y="284" width="50" height="3" fill="#30363d" rx="1"/><rect x="160" y="284" width="50" height="3" fill="#30363d" rx="1"/><rect x="240" y="284" width="50" height="3" fill="#30363d" rx="1"/><rect x="320" y="284" width="50" height="3" fill="#30363d" rx="1"/><rect x="400" y="284" width="50" height="3" fill="#30363d" rx="1"/><rect x="480" y="284" width="50" height="3" fill="#30363d" rx="1"/><rect x="560" y="284" width="50" height="3" fill="#30363d" rx="1"/><rect x="640" y="284" width="50" height="3" fill="#30363d" rx="1"/><rect x="720" y="284" width="50" height="3" fill="#30363d" rx="1"/><rect x="800" y="284" width="50" height="3" fill="#30363d" rx="1"/><rect x="880" y="284" width="50" height="3" fill="#30363d" rx="1"/><rect x="0" y="294" width="900" height="4" fill="#21262d"/><rect x="109" y="183" width="52" height="95" fill="#161b22" rx="1"/><rect x="161" y="187" width="6" height="91" fill="#0d1117" rx="1"/><rect x="107" y="177" width="56" height="8" fill="#30363d" rx="1"/><rect x="134" y="161" width="3" height="16" fill="#30363d"/>
<circle cx="135" cy="159" r="3.5" fill="#f97316" class="sign-0" filter="url(#glow-orange)"/><rect x="117" y="191" width="8" height="6" rx="1" fill="#26a641" opacity="0.77" class="win-0-0"/><rect x="129" y="191" width="8" height="6" rx="1" fill="#39d353" opacity="0.56" class="win-0-1"/><rect x="141" y="191" width="8" height="6" rx="1" fill="#26a641" opacity="0.73" class="win-0-2"/><rect x="117" y="202" width="8" height="6" rx="1" fill="#39d353" opacity="0.59" class="win-0-0"/><rect x="129" y="202" width="8" height="6" rx="1" fill="#26a641" opacity="0.78" class="win-0-1"/><rect x="141" y="202" width="8" height="6" rx="1" fill="#39d353" opacity="0.71" class="win-0-2"/><rect x="117" y="213" width="8" height="6" rx="1" fill="#26a641" opacity="0.68" class="win-0-0"/><rect x="129" y="213" width="8" height="6" rx="1" fill="#39d353" opacity="0.69" class="win-0-1"/><rect x="141" y="213" width="8" height="6" rx="1" fill="#26a641" opacity="0.56" class="win-0-2"/><rect x="117" y="224" width="8" height="6" rx="1" fill="#39d353" opacity="0.65" class="win-0-0"/><rect x="129" y="224" width="8" height="6" rx="1" fill="#26a641" opacity="0.72" class="win-0-1"/><rect x="141" y="224" width="8" height="6" rx="1" fill="#39d353" opacity="0.79" class="win-0-2"/><rect x="117" y="235" width="8" height="6" rx="1" fill="#26a641" opacity="0.85" class="win-0-0"/><rect x="129" y="235" width="8" height="6" rx="1" fill="#39d353" opacity="0.73" class="win-0-1"/><rect x="141" y="235" width="8" height="6" rx="1" fill="#26a641" opacity="0.90" class="win-0-2"/><rect x="124" y="264" width="22" height="14" fill="#0d1117" rx="1"/>
<rect x="127" y="266" width="7" height="11" fill="#39d353" opacity="0.12" rx="1"/>
<rect x="136" y="266" width="7" height="11" fill="#26a641" opacity="0.1" rx="1"/><text x="135" y="294" text-anchor="middle" font-family="monospace" font-size="7.5" fill="#8b949e">lucasdias17…</text><text x="135" y="303" text-anchor="middle" font-family="monospace" font-size="7" fill="#39d353">47c</text><rect x="319" y="183" width="52" height="95" fill="#161b22" rx="1"/><rect x="371" y="187" width="6" height="91" fill="#0d1117" rx="1"/><rect x="317" y="177" width="56" height="8" fill="#30363d" rx="1"/><rect x="344" y="161" width="3" height="16" fill="#30363d"/>
<circle cx="345" cy="159" r="3.5" fill="#58a6ff" class="sign-1" filter="url(#glow-orange)"/><rect x="327" y="191" width="8" height="6" rx="1" fill="#26a641" opacity="0.84" class="win-1-0"/><rect x="339" y="191" width="8" height="6" rx="1" fill="#39d353" opacity="0.80" class="win-1-1"/><rect x="351" y="191" width="8" height="6" rx="1" fill="#26a641" opacity="0.94" class="win-1-2"/><rect x="327" y="202" width="8" height="6" rx="1" fill="#39d353" opacity="0.94" class="win-1-0"/><rect x="339" y="202" width="8" height="6" rx="1" fill="#26a641" opacity="0.83" class="win-1-1"/><rect x="351" y="202" width="8" height="6" rx="1" fill="#39d353" opacity="0.56" class="win-1-2"/><rect x="327" y="213" width="8" height="6" rx="1" fill="#26a641" opacity="0.67" class="win-1-0"/><rect x="339" y="213" width="8" height="6" rx="1" fill="#39d353" opacity="0.58" class="win-1-1"/><rect x="351" y="213" width="8" height="6" rx="1" fill="#26a641" opacity="0.93" class="win-1-2"/><rect x="327" y="224" width="8" height="6" rx="1" fill="#39d353" opacity="0.64" class="win-1-0"/><rect x="339" y="224" width="8" height="6" rx="1" fill="#26a641" opacity="0.90" class="win-1-1"/><rect x="351" y="224" width="8" height="6" rx="1" fill="#39d353" opacity="0.67" class="win-1-2"/><rect x="327" y="235" width="8" height="6" rx="1" fill="#26a641" opacity="0.78" class="win-1-0"/><rect x="339" y="235" width="8" height="6" rx="1" fill="#39d353" opacity="0.79" class="win-1-1"/><rect x="351" y="235" width="8" height="6" rx="1" fill="#26a641" opacity="0.80" class="win-1-2"/><rect x="334" y="264" width="22" height="14" fill="#0d1117" rx="1"/>
<rect x="337" y="266" width="7" height="11" fill="#39d353" opacity="0.12" rx="1"/>
<rect x="346" y="266" width="7" height="11" fill="#26a641" opacity="0.1" rx="1"/><text x="345" y="294" text-anchor="middle" font-family="monospace" font-size="7.5" fill="#8b949e">PedeMenu</text><text x="345" y="303" text-anchor="middle" font-family="monospace" font-size="7" fill="#39d353">34c</text><rect x="537" y="230" width="36" height="48" fill="#161b22" rx="1"/><rect x="573" y="234" width="6" height="44" fill="#0d1117" rx="1"/><rect x="535" y="224" width="40" height="8" fill="#21262d" rx="1"/><rect x="545" y="238" width="8" height="6" rx="1" fill="#006d32" opacity="0.87" class="win-2-0"/><text x="555" y="294" text-anchor="middle" font-family="monospace" font-size="7.5" fill="#8b949e">ReaderRFIDD…</text><text x="555" y="303" text-anchor="middle" font-family="monospace" font-size="7" fill="#39d353">1c</text><rect x="747" y="230" width="36" height="48" fill="#161b22" rx="1"/><rect x="783" y="234" width="6" height="44" fill="#0d1117" rx="1"/><rect x="745" y="224" width="40" height="8" fill="#21262d" rx="1"/><rect x="755" y="238" width="8" height="6" rx="1" fill="#006d32" opacity="0.85" class="win-3-0"/><text x="765" y="294" text-anchor="middle" font-family="monospace" font-size="7.5" fill="#8b949e">Prova</text><text x="765" y="303" text-anchor="middle" font-family="monospace" font-size="7" fill="#39d353">1c</text><rect x="240" y="248" width="2" height="30" fill="#30363d"/>
<rect x="232" y="248" width="12" height="2" fill="#30363d" rx="1"/>
<circle cx="232" cy="248" r="4" fill="#fbbf24" opacity="0.9" filter="url(#glow-soft)" class="lamp"/><g class="car1">
  <rect x="10" y="280" width="22" height="10" fill="#da3633" rx="2"/>
  <rect x="14" y="277" width="14" height="5" fill="#da3633" rx="1" opacity="0.8"/>
  <rect x="15" y="278" width="12" height="3" fill="#58a6ff" opacity="0.35" rx="1"/>
  <circle cx="14" cy="290" r="3" fill="#1c2128"/>
  <circle cx="28" cy="290" r="3" fill="#1c2128"/>
  <rect x="30" y="282" width="3" height="4" fill="#fbbf24" opacity="0.9" rx="1"/>
</g>
<g class="car2" style="transform-origin:450px 285px">
  <rect x="440" y="280" width="20" height="10" fill="#1f6feb" rx="2"/>
  <rect x="443" y="277" width="14" height="5" fill="#1f6feb" rx="1" opacity="0.8"/>
  <rect x="444" y="278" width="12" height="3" fill="#58a6ff" opacity="0.3" rx="1"/>
  <circle cx="443" cy="290" r="3" fill="#1c2128"/>
  <circle cx="457" cy="290" r="3" fill="#1c2128"/>
  <rect x="438" y="282" width="3" height="4" fill="#f97316" opacity="0.7" rx="1"/>
</g><rect x="4" y="314" width="200" height="22" fill="#0d1117" rx="3" opacity="0.85"/>
<text x="10" y="329" font-family="monospace" font-size="9" fill="#58a6ff">// commit city — lucasdias1707</text><rect x="714" y="314" width="182" height="22" fill="#0d1117" rx="3" opacity="0.85"/>
<rect x="719" y="319" width="9" height="9" rx="1" fill="#0e4429"/>
<text x="731" y="327" font-family="monospace" font-size="8" fill="#8b949e">&lt;10</text>
<rect x="748" y="319" width="9" height="9" rx="1" fill="#26a641"/>
<text x="760" y="327" font-family="monospace" font-size="8" fill="#8b949e">10–29</text>
<rect x="784" y="319" width="9" height="9" rx="1" fill="#39d353"/>
<text x="796" y="327" font-family="monospace" font-size="8" fill="#8b949e">30–79</text>
<rect x="820" y="319" width="9" height="9" rx="1" fill="#58a6ff"/>
<text x="832" y="327" font-family="monospace" font-size="8" fill="#8b949e">80–199</text>
<rect x="864" y="319" width="9" height="9" rx="1" fill="#f0a848"/>
<text x="876" y="327" font-family="monospace" font-size="8" fill="#8b949e">200+</text></svg>